<mxfile host="app.diagrams.net" modified="2022-08-01T10:03:32.057Z" agent="5.0 (Windows NT 10.0; Win64; x64) AppleWebKit/537.36 (KHTML, like Gecko) Chrome/103.0.0.0 Safari/537.36" etag="7whfcAO8dviTgMsDZZ5m" version="20.2.2" type="github">
  <diagram id="0vyO7WnE92NQ8TErIjsy" name="Page-1">
    <mxGraphModel dx="1422" dy="754" grid="1" gridSize="10" guides="1" tooltips="1" connect="1" arrows="1" fold="1" page="1" pageScale="1" pageWidth="827" pageHeight="1169" math="0" shadow="0">
      <root>
        <mxCell id="0" />
        <mxCell id="1" parent="0" />
        <mxCell id="c6wsG3xENbHohxN_rkKL-1" value="" style="rounded=0;whiteSpace=wrap;html=1;fontSize=14;fontColor=#FFFFFF;strokeWidth=1;fillColor=#FFFFFF;strokeColor=none;" vertex="1" parent="1">
          <mxGeometry x="30" y="30" width="630" height="300" as="geometry" />
        </mxCell>
        <mxCell id="iZ1BnMqdpyFMX0D6jYYK-14" style="edgeStyle=orthogonalEdgeStyle;rounded=0;orthogonalLoop=1;jettySize=auto;html=1;exitX=0.5;exitY=1;exitDx=0;exitDy=0;endArrow=none;endFill=0;" parent="1" source="iZ1BnMqdpyFMX0D6jYYK-1" target="iZ1BnMqdpyFMX0D6jYYK-2" edge="1">
          <mxGeometry relative="1" as="geometry" />
        </mxCell>
        <mxCell id="iZ1BnMqdpyFMX0D6jYYK-15" style="edgeStyle=orthogonalEdgeStyle;rounded=0;orthogonalLoop=1;jettySize=auto;html=1;exitX=0.5;exitY=1;exitDx=0;exitDy=0;entryX=0.5;entryY=0;entryDx=0;entryDy=0;endArrow=none;endFill=0;" parent="1" source="iZ1BnMqdpyFMX0D6jYYK-1" target="iZ1BnMqdpyFMX0D6jYYK-3" edge="1">
          <mxGeometry relative="1" as="geometry" />
        </mxCell>
        <mxCell id="iZ1BnMqdpyFMX0D6jYYK-16" style="edgeStyle=orthogonalEdgeStyle;rounded=0;orthogonalLoop=1;jettySize=auto;html=1;exitX=0.5;exitY=1;exitDx=0;exitDy=0;entryX=0.5;entryY=0;entryDx=0;entryDy=0;endArrow=none;endFill=0;" parent="1" source="iZ1BnMqdpyFMX0D6jYYK-1" target="iZ1BnMqdpyFMX0D6jYYK-4" edge="1">
          <mxGeometry relative="1" as="geometry" />
        </mxCell>
        <mxCell id="iZ1BnMqdpyFMX0D6jYYK-1" value="ORGANIZATION" style="rounded=0;whiteSpace=wrap;html=1;strokeWidth=1;fontStyle=1" parent="1" vertex="1">
          <mxGeometry x="360" y="40" width="120" height="40" as="geometry" />
        </mxCell>
        <mxCell id="iZ1BnMqdpyFMX0D6jYYK-19" style="edgeStyle=orthogonalEdgeStyle;rounded=0;orthogonalLoop=1;jettySize=auto;html=1;exitX=0.5;exitY=1;exitDx=0;exitDy=0;endArrow=none;endFill=0;" parent="1" source="iZ1BnMqdpyFMX0D6jYYK-2" target="iZ1BnMqdpyFMX0D6jYYK-7" edge="1">
          <mxGeometry relative="1" as="geometry" />
        </mxCell>
        <mxCell id="iZ1BnMqdpyFMX0D6jYYK-20" style="edgeStyle=orthogonalEdgeStyle;rounded=0;orthogonalLoop=1;jettySize=auto;html=1;exitX=0.5;exitY=1;exitDx=0;exitDy=0;entryX=0.5;entryY=0;entryDx=0;entryDy=0;endArrow=none;endFill=0;" parent="1" source="iZ1BnMqdpyFMX0D6jYYK-2" target="iZ1BnMqdpyFMX0D6jYYK-8" edge="1">
          <mxGeometry relative="1" as="geometry" />
        </mxCell>
        <mxCell id="iZ1BnMqdpyFMX0D6jYYK-21" style="edgeStyle=orthogonalEdgeStyle;rounded=0;orthogonalLoop=1;jettySize=auto;html=1;exitX=0.5;exitY=1;exitDx=0;exitDy=0;entryX=0.5;entryY=0;entryDx=0;entryDy=0;endArrow=none;endFill=0;" parent="1" source="iZ1BnMqdpyFMX0D6jYYK-2" target="iZ1BnMqdpyFMX0D6jYYK-9" edge="1">
          <mxGeometry relative="1" as="geometry" />
        </mxCell>
        <mxCell id="iZ1BnMqdpyFMX0D6jYYK-22" style="edgeStyle=orthogonalEdgeStyle;rounded=0;orthogonalLoop=1;jettySize=auto;html=1;exitX=0.5;exitY=1;exitDx=0;exitDy=0;entryX=0.5;entryY=0;entryDx=0;entryDy=0;endArrow=none;endFill=0;" parent="1" source="iZ1BnMqdpyFMX0D6jYYK-2" target="iZ1BnMqdpyFMX0D6jYYK-11" edge="1">
          <mxGeometry relative="1" as="geometry" />
        </mxCell>
        <mxCell id="iZ1BnMqdpyFMX0D6jYYK-2" value="Portfolio" style="rounded=0;whiteSpace=wrap;html=1;" parent="1" vertex="1">
          <mxGeometry x="240" y="120" width="80" height="40" as="geometry" />
        </mxCell>
        <mxCell id="iZ1BnMqdpyFMX0D6jYYK-3" value="Project" style="rounded=0;whiteSpace=wrap;html=1;fillColor=#000000;fontColor=#FFFFFF;" parent="1" vertex="1">
          <mxGeometry x="380" y="120" width="80" height="40" as="geometry" />
        </mxCell>
        <mxCell id="iZ1BnMqdpyFMX0D6jYYK-17" style="edgeStyle=orthogonalEdgeStyle;rounded=0;orthogonalLoop=1;jettySize=auto;html=1;exitX=0.5;exitY=1;exitDx=0;exitDy=0;entryX=0.5;entryY=0;entryDx=0;entryDy=0;endArrow=none;endFill=0;" parent="1" source="iZ1BnMqdpyFMX0D6jYYK-4" target="iZ1BnMqdpyFMX0D6jYYK-5" edge="1">
          <mxGeometry relative="1" as="geometry" />
        </mxCell>
        <mxCell id="iZ1BnMqdpyFMX0D6jYYK-18" style="edgeStyle=orthogonalEdgeStyle;rounded=0;orthogonalLoop=1;jettySize=auto;html=1;exitX=0.5;exitY=1;exitDx=0;exitDy=0;entryX=0.5;entryY=0;entryDx=0;entryDy=0;endArrow=none;endFill=0;" parent="1" source="iZ1BnMqdpyFMX0D6jYYK-4" target="iZ1BnMqdpyFMX0D6jYYK-6" edge="1">
          <mxGeometry relative="1" as="geometry" />
        </mxCell>
        <mxCell id="iZ1BnMqdpyFMX0D6jYYK-4" value="Programme" style="rounded=0;whiteSpace=wrap;html=1;" parent="1" vertex="1">
          <mxGeometry x="520" y="120" width="80" height="40" as="geometry" />
        </mxCell>
        <mxCell id="iZ1BnMqdpyFMX0D6jYYK-5" value="Project" style="rounded=0;whiteSpace=wrap;html=1;fillColor=#000000;fontColor=#FFFFFF;" parent="1" vertex="1">
          <mxGeometry x="470" y="200" width="80" height="40" as="geometry" />
        </mxCell>
        <mxCell id="iZ1BnMqdpyFMX0D6jYYK-6" value="Other &lt;br&gt;related work" style="rounded=0;whiteSpace=wrap;html=1;fontStyle=2" parent="1" vertex="1">
          <mxGeometry x="570" y="200" width="80" height="40" as="geometry" />
        </mxCell>
        <mxCell id="iZ1BnMqdpyFMX0D6jYYK-7" value="Project" style="rounded=0;whiteSpace=wrap;html=1;fillColor=#000000;fontColor=#FFFFFF;" parent="1" vertex="1">
          <mxGeometry x="240" y="200" width="80" height="40" as="geometry" />
        </mxCell>
        <mxCell id="iZ1BnMqdpyFMX0D6jYYK-8" value="Other &lt;br&gt;related work" style="rounded=0;whiteSpace=wrap;html=1;fontStyle=2" parent="1" vertex="1">
          <mxGeometry x="340" y="200" width="80" height="40" as="geometry" />
        </mxCell>
        <mxCell id="iZ1BnMqdpyFMX0D6jYYK-23" style="edgeStyle=orthogonalEdgeStyle;rounded=0;orthogonalLoop=1;jettySize=auto;html=1;exitX=0.5;exitY=1;exitDx=0;exitDy=0;endArrow=none;endFill=0;" parent="1" source="iZ1BnMqdpyFMX0D6jYYK-9" target="iZ1BnMqdpyFMX0D6jYYK-12" edge="1">
          <mxGeometry relative="1" as="geometry" />
        </mxCell>
        <mxCell id="iZ1BnMqdpyFMX0D6jYYK-24" style="edgeStyle=orthogonalEdgeStyle;rounded=0;orthogonalLoop=1;jettySize=auto;html=1;exitX=0.5;exitY=1;exitDx=0;exitDy=0;entryX=0.5;entryY=0;entryDx=0;entryDy=0;endArrow=none;endFill=0;" parent="1" source="iZ1BnMqdpyFMX0D6jYYK-9" target="iZ1BnMqdpyFMX0D6jYYK-10" edge="1">
          <mxGeometry relative="1" as="geometry" />
        </mxCell>
        <mxCell id="iZ1BnMqdpyFMX0D6jYYK-25" style="edgeStyle=orthogonalEdgeStyle;rounded=0;orthogonalLoop=1;jettySize=auto;html=1;exitX=0.5;exitY=1;exitDx=0;exitDy=0;entryX=0.5;entryY=0;entryDx=0;entryDy=0;endArrow=none;endFill=0;" parent="1" source="iZ1BnMqdpyFMX0D6jYYK-9" target="iZ1BnMqdpyFMX0D6jYYK-13" edge="1">
          <mxGeometry relative="1" as="geometry" />
        </mxCell>
        <mxCell id="iZ1BnMqdpyFMX0D6jYYK-9" value="Programme" style="rounded=0;whiteSpace=wrap;html=1;" parent="1" vertex="1">
          <mxGeometry x="140" y="200" width="80" height="40" as="geometry" />
        </mxCell>
        <mxCell id="iZ1BnMqdpyFMX0D6jYYK-10" value="Project" style="rounded=0;whiteSpace=wrap;html=1;fillColor=#000000;fontColor=#FFFFFF;" parent="1" vertex="1">
          <mxGeometry x="140" y="280" width="80" height="40" as="geometry" />
        </mxCell>
        <mxCell id="iZ1BnMqdpyFMX0D6jYYK-11" value="Portfolio" style="rounded=0;whiteSpace=wrap;html=1;" parent="1" vertex="1">
          <mxGeometry x="40" y="200" width="80" height="40" as="geometry" />
        </mxCell>
        <mxCell id="iZ1BnMqdpyFMX0D6jYYK-12" value="Programme" style="rounded=0;whiteSpace=wrap;html=1;" parent="1" vertex="1">
          <mxGeometry x="40" y="280" width="80" height="40" as="geometry" />
        </mxCell>
        <mxCell id="iZ1BnMqdpyFMX0D6jYYK-13" value="Other &lt;br&gt;related work" style="rounded=0;whiteSpace=wrap;html=1;fontStyle=2" parent="1" vertex="1">
          <mxGeometry x="240" y="280" width="80" height="40" as="geometry" />
        </mxCell>
      </root>
    </mxGraphModel>
  </diagram>
</mxfile>
